<svg width="12" height="12" viewBox="0 0 10 10" fill="none" xmlns="http://www.w3.org/2000/svg">
	<path d="M5 10C2.24186 10 0 7.75814 0 5C0 2.24186 2.24186 0 5 0C7.75814 0 10 2.24186 10 5C10 7.75814 7.75814 10 5 10ZM5 0.697674C2.62791 0.697674 0.697674 2.62791 0.697674 5C0.697674 7.37209 2.62791 9.30233 5 9.30233C7.37209 9.30233 9.30233 7.37209 9.30233 5C9.30233 2.62791 7.37209 0.697674 5 0.697674Z" fill="#4B4E6D" />
	<path d="M6.72538 6.8279C6.66492 6.8279 6.60445 6.81395 6.54864 6.77674L5.10678 5.91627C4.74864 5.70232 4.48352 5.23255 4.48352 4.8186V2.91163C4.48352 2.72093 4.64166 2.56279 4.83236 2.56279C5.02306 2.56279 5.18119 2.72093 5.18119 2.91163V4.8186C5.18119 4.98604 5.32073 5.23255 5.46492 5.31627L6.90678 6.17674C7.07422 6.27441 7.12538 6.48837 7.02771 6.65581C6.95794 6.76744 6.84166 6.8279 6.72538 6.8279Z" fill="#4B4E6D" />
</svg>
