<svg width="29" height="29" viewBox="0 0 29 29" fill="none" xmlns="http://www.w3.org/2000/svg">
	<path d="M21.995 12.9985V18.0035C21.995 18.3288 21.9825 18.6416 21.9449 18.9419C21.6572 22.3203 19.6677 23.997 16.0015 23.997H15.501C15.1882 23.997 14.8879 24.1471 14.7002 24.3974L13.1987 26.3994C12.5355 27.2878 11.4595 27.2878 10.7963 26.3994L9.29478 24.3974C9.13212 24.1847 8.76927 23.997 8.49399 23.997H7.99351C4.00201 23.997 2 23.0085 2 18.0035V12.9985C2 9.33234 3.6892 7.34286 7.05507 7.05507C7.35537 7.01753 7.66818 7.005 7.99351 7.005H16.0015C19.993 7.005 21.995 9.00702 21.995 12.9985Z" stroke="#292D32" stroke-width="2.32922" stroke-miterlimit="10" stroke-linecap="round" stroke-linejoin="round" />
	<path d="M27 7.99351V12.9985C27 16.6772 25.3108 18.6542 21.945 18.9419C21.9825 18.6416 21.995 18.3288 21.995 18.0035V12.9985C21.995 9.00702 19.993 7.005 16.0015 7.005H7.99355C7.66823 7.005 7.35542 7.01753 7.05511 7.05507C7.3429 3.6892 9.33239 2 12.9985 2H21.0065C24.998 2 27 4.00201 27 7.99351Z" stroke="#292D32" stroke-width="2.32922" stroke-miterlimit="10" stroke-linecap="round" stroke-linejoin="round" />
	<path d="M16.3837 16.0766H16.395" stroke="#292D32" stroke-width="3.10562" stroke-linecap="round" stroke-linejoin="round" />
	<path d="M12.0043 16.0766H12.0156" stroke="#292D32" stroke-width="3.10562" stroke-linecap="round" stroke-linejoin="round" />
	<path d="M7.625 16.0766H7.63626" stroke="#292D32" stroke-width="3.10562" stroke-linecap="round" stroke-linejoin="round" />
</svg>
