<svg width="25" height="25" viewBox="0 0 25 25" fill="none" xmlns="http://www.w3.org/2000/svg">
<path d="M12.6401 14.2791C12.6168 14.2791 12.582 14.2791 12.5587 14.2791C12.5238 14.2791 12.4773 14.2791 12.4424 14.2791C9.80285 14.1977 7.82611 12.1395 7.82611 9.60463C7.82611 7.02323 9.93076 4.91858 12.5122 4.91858C15.0936 4.91858 17.1982 7.02323 17.1982 9.60463C17.1866 12.1512 15.1982 14.1977 12.675 14.2791C12.6517 14.2791 12.6517 14.2791 12.6401 14.2791ZM12.5006 6.65114C10.8727 6.65114 9.55867 7.97672 9.55867 9.593C9.55867 11.186 10.8029 12.4767 12.3843 12.5349C12.4192 12.5233 12.5354 12.5233 12.6517 12.5349C14.2099 12.4535 15.4308 11.1744 15.4424 9.593C15.4424 7.97672 14.1285 6.65114 12.5006 6.65114Z" fill="#292D32"/>
<path d="M12.5009 25.0001C9.37303 25.0001 6.38466 23.8373 4.07071 21.7211C3.8614 21.535 3.76838 21.2559 3.79164 20.9885C3.9428 19.6048 4.80326 18.3141 6.2335 17.3606C9.69861 15.0583 15.3149 15.0583 18.7684 17.3606C20.1986 18.3257 21.0591 19.6048 21.2102 20.9885C21.2451 21.2676 21.1405 21.535 20.9312 21.7211C18.6172 23.8373 15.6288 25.0001 12.5009 25.0001ZM5.61722 20.7559C7.54745 22.3722 9.97768 23.2559 12.5009 23.2559C15.0242 23.2559 17.4544 22.3722 19.3846 20.7559C19.1753 20.0466 18.6172 19.3606 17.7916 18.8025C14.9312 16.8955 10.0823 16.8955 7.19861 18.8025C6.37303 19.3606 5.82652 20.0466 5.61722 20.7559Z" fill="#292D32"/>
<path d="M12.5 25C5.60465 25 0 19.3953 0 12.5C0 5.60465 5.60465 0 12.5 0C19.3953 0 25 5.60465 25 12.5C25 19.3953 19.3953 25 12.5 25ZM12.5 1.74419C6.56977 1.74419 1.74419 6.56977 1.74419 12.5C1.74419 18.4302 6.56977 23.2558 12.5 23.2558C18.4302 23.2558 23.2558 18.4302 23.2558 12.5C23.2558 6.56977 18.4302 1.74419 12.5 1.74419Z" fill="#292D32"/>
</svg>
