<svg width="25" height="25" viewBox="0 0 25 25" fill="none" xmlns="http://www.w3.org/2000/svg">
<path d="M19.0338 9.73268H12.9291C12.4524 9.73268 12.057 9.33733 12.057 8.86059C12.057 8.38384 12.4524 7.98849 12.9291 7.98849H19.0338C19.5105 7.98849 19.9058 8.38384 19.9058 8.86059C19.9058 9.33733 19.5221 9.73268 19.0338 9.73268Z" fill="#292D32"/>
<path d="M6.82624 10.616C6.60531 10.616 6.38438 10.5347 6.20996 10.3602L5.33787 9.48816C5.00066 9.15096 5.00066 8.59282 5.33787 8.25561C5.67508 7.9184 6.23322 7.9184 6.57043 8.25561L6.82624 8.51142L8.82624 6.51142C9.16345 6.17421 9.72159 6.17421 10.0588 6.51142C10.3959 6.84863 10.3959 7.40677 10.0588 7.74398L7.44252 10.3602C7.27973 10.523 7.0588 10.616 6.82624 10.616Z" fill="#292D32"/>
<path d="M19.0338 17.8722H12.9291C12.4524 17.8722 12.057 17.4768 12.057 17.0001C12.057 16.5233 12.4524 16.128 12.9291 16.128H19.0338C19.5105 16.128 19.9058 16.5233 19.9058 17.0001C19.9058 17.4768 19.5221 17.8722 19.0338 17.8722Z" fill="#292D32"/>
<path d="M6.82624 18.7556C6.60531 18.7556 6.38438 18.6742 6.20996 18.4998L5.33787 17.6277C5.00066 17.2905 5.00066 16.7323 5.33787 16.3951C5.67508 16.0579 6.23322 16.0579 6.57043 16.3951L6.82624 16.6509L8.82624 14.6509C9.16345 14.3137 9.72159 14.3137 10.0588 14.6509C10.3959 14.9881 10.3959 15.5463 10.0588 15.8835L7.44252 18.4998C7.27973 18.6625 7.0588 18.7556 6.82624 18.7556Z" fill="#292D32"/>
<path d="M15.9884 25H9.01163C2.69767 25 0 22.3023 0 15.9884V9.01163C0 2.69767 2.69767 0 9.01163 0H15.9884C22.3023 0 25 2.69767 25 9.01163V15.9884C25 22.3023 22.3023 25 15.9884 25ZM9.01163 1.74419C3.65116 1.74419 1.74419 3.65116 1.74419 9.01163V15.9884C1.74419 21.3488 3.65116 23.2558 9.01163 23.2558H15.9884C21.3488 23.2558 23.2558 21.3488 23.2558 15.9884V9.01163C23.2558 3.65116 21.3488 1.74419 15.9884 1.74419H9.01163Z" fill="#292D32"/>
</svg>
